<svg width="70" height="76" viewBox="0 0 70 76" fill="none" xmlns="http://www.w3.org/2000/svg">
<path d="M0 10C0 4.47715 4.47715 0 10 0H60C65.5229 0 70 4.47715 70 10V66C70 71.5229 65.5229 76 60 76H10C4.47715 76 0 71.5229 0 66V10Z" fill="#FFF2F3"/>
<g clip-path="url(#clip0_2689_867)">
<g clip-path="url(#clip1_2689_867)">
<path d="M30.2754 43.606H39.7247V48.3306H30.2754V43.606Z" fill="#E74040"/>
<path d="M35 25.6519C29.2686 25.6519 24.6057 30.3148 24.6057 36.0461V50.2201C24.6057 52.3042 26.3013 53.9998 28.3854 53.9998H41.6145C43.6986 53.9998 45.3942 52.3042 45.3942 50.2201V36.0461C45.3942 30.3147 40.7314 25.6519 35 25.6519ZM29.3304 34.1562H40.6696V36.0461H38.7797V37.936H36.8898V36.0461H29.3304V34.1562ZM41.6145 50.2201H28.3854V41.7157H41.6145V50.2201Z" fill="#E74040"/>
<path d="M44.7047 23.8388L39.3415 22L38.5571 24.288C40.4523 24.8625 42.155 25.8834 43.5427 27.228L44.7047 23.8388Z" fill="#E74040"/>
<path d="M31.4428 24.288L30.6583 22L25.2952 23.8388L26.4572 27.228C27.8448 25.8834 29.5476 24.8625 31.4428 24.288Z" fill="#E74040"/>
</g>
</g>
<defs>
<clipPath id="clip0_2689_867">
<rect width="32" height="32" fill="white" transform="translate(19 22)"/>
</clipPath>
<clipPath id="clip1_2689_867">
<rect width="20.7885" height="32" fill="white" transform="translate(24.6057 22)"/>
</clipPath>
</defs>
</svg>
