<svg width="71" height="76" viewBox="0 0 71 76" fill="none" xmlns="http://www.w3.org/2000/svg">
<path d="M0.5 10C0.5 4.47715 4.97715 0 10.5 0H60.5C66.0229 0 70.5 4.47715 70.5 10V66C70.5 71.5229 66.0229 76 60.5 76H10.5C4.97715 76 0.5 71.5229 0.5 66V10Z" fill="#DDF4FF"/>
<g clip-path="url(#clip0_2689_846)">
<g clip-path="url(#clip1_2689_846)">
<path d="M33.095 34.4947C33.1326 34.465 33.1718 34.4384 33.2108 34.4104C33.3099 34.339 33.4133 34.2745 33.5209 34.2172C33.5632 34.1941 33.6041 34.1711 33.6475 34.1508C34.6517 33.663 35.8509 33.8274 36.6869 34.5671C36.7311 34.6056 36.767 34.6492 36.8088 34.6898C36.8927 34.7708 36.9718 34.8567 37.0454 34.9473C37.0871 34.9994 37.1219 35.0557 37.1579 35.1108C37.2177 35.1976 37.2729 35.2876 37.3226 35.3806C37.3547 35.4413 37.3827 35.5031 37.4101 35.5662C37.4513 35.6603 37.487 35.7569 37.5174 35.8549C37.5377 35.9208 37.557 35.9856 37.5737 36.0523C37.5968 36.1546 37.614 36.2578 37.6256 36.3621C37.6333 36.4272 37.6429 36.4914 37.6462 36.557C37.6503 36.6715 37.6473 36.7859 37.6374 36.9001C37.6333 36.9561 37.6338 37.0124 37.6267 37.0686C37.6039 37.2328 37.566 37.3947 37.5141 37.552C37.5141 37.5605 37.5114 37.5684 37.5087 37.5767L39.0179 38.4481L41.8285 33.5758L26.2541 24.582L23.4436 29.4538L32.742 34.8213C32.8499 34.7024 32.9681 34.5932 33.095 34.4947Z" fill="#E74040"/>
<path d="M20.6543 29.7883L25.1512 22L26.1241 22.5618L21.6273 30.3501L20.6543 29.7883Z" fill="#E74040"/>
<path d="M45.9883 39.872L46.5507 38.8979L50.4448 41.1464L49.8824 42.1205L45.9883 39.872Z" fill="#E74040"/>
<path d="M40.5583 38.0343L42.2447 35.1143L46.1388 37.363L44.4525 40.283L40.5583 38.0343Z" fill="#E74040"/>
<path d="M36.17 37.9645C36.1442 37.917 36.1115 37.8736 36.0728 37.8358C36.1615 37.7438 36.2391 37.6417 36.3039 37.5317C36.768 36.7247 36.4938 35.6947 35.6899 35.2253C35.5744 35.1605 35.4514 35.1098 35.3241 35.0735C35.2865 35.0623 35.2478 35.0554 35.2118 35.0469C35.1193 35.0269 35.0252 35.0145 34.9308 35.0099C34.8901 35.0099 34.8503 35.0049 34.8097 35.006C34.6755 35.009 34.5421 35.028 34.4123 35.0623C33.8395 35.213 33.3885 35.6551 33.2269 36.2252C33.0652 36.7953 33.2167 37.4082 33.6254 37.8374C33.587 37.8747 33.5546 37.9176 33.5288 37.9645L25.912 53.1862C25.7734 53.4642 25.8862 53.8018 26.164 53.9407C26.4418 54.0793 26.7796 53.9667 26.9182 53.6887L34.2847 38.9504V53.4376C34.2847 53.748 34.5363 53.9997 34.8468 53.9997C35.1572 53.9997 35.4089 53.748 35.4089 53.4376V38.9548L42.7725 53.6887C42.9114 53.9667 43.249 54.0793 43.5271 53.9407C43.8048 53.8018 43.9176 53.4642 43.7787 53.1862L36.17 37.9645Z" fill="#E74040"/>
</g>
</g>
<defs>
<clipPath id="clip0_2689_846">
<rect width="32" height="32" fill="white" transform="translate(19.5 22)"/>
</clipPath>
<clipPath id="clip1_2689_846">
<rect width="32" height="32" fill="white" transform="translate(19.5 22)"/>
</clipPath>
</defs>
</svg>
